<?xml version="1.0" encoding="UTF-8" standalone="no"?>
<!DOCTYPE svg PUBLIC "-//W3C//DTD SVG 1.1//EN" "http://www.w3.org/Graphics/SVG/1.1/DTD/svg11.dtd">
<svg width="100%" height="100%" viewBox="0 0 130 130" version="1.1" xmlns="http://www.w3.org/2000/svg" xmlns:xlink="http://www.w3.org/1999/xlink" xml:space="preserve" xmlns:serif="http://www.serif.com/" style="fill-rule:evenodd;clip-rule:evenodd;stroke-linejoin:round;stroke-miterlimit:2;">
    <rect x="0" y="0" width="130" height="130" style="fill:rgb(232,211,209);"/>
    <g>
        <path d="M100.214,43.604C99.12,35.546 92.035,29.195 83.637,27.965C82.22,27.757 76.851,27 64.415,27L64.322,27C51.882,27 49.214,27.757 47.797,27.965C39.632,29.161 32.176,34.868 30.367,43.021C29.497,47.037 29.404,51.489 29.565,55.573C29.796,61.429 29.84,67.275 30.377,73.108C30.748,76.982 31.395,80.825 32.313,84.609C34.033,91.597 40.994,97.412 47.814,99.785C55.115,102.259 62.968,102.67 70.492,100.971C71.32,100.78 72.138,100.559 72.948,100.306C74.774,99.73 76.916,99.086 78.492,97.954C78.513,97.938 78.531,97.918 78.543,97.894C78.556,97.871 78.563,97.845 78.564,97.818L78.564,92.166C78.563,92.141 78.557,92.117 78.546,92.094C78.535,92.072 78.519,92.053 78.499,92.037C78.479,92.022 78.456,92.011 78.432,92.006C78.407,92 78.382,92 78.357,92.006C73.537,93.147 68.597,93.719 63.641,93.71C55.112,93.71 52.818,89.698 52.161,88.028C51.633,86.584 51.298,85.078 51.164,83.549C51.162,83.523 51.167,83.497 51.178,83.474C51.188,83.45 51.204,83.43 51.224,83.413C51.244,83.397 51.268,83.386 51.293,83.38C51.319,83.375 51.345,83.375 51.37,83.382C56.11,84.515 60.969,85.087 65.846,85.086C67.018,85.086 68.188,85.086 69.36,85.055C74.265,84.919 79.434,84.67 84.259,83.736C84.379,83.712 84.5,83.692 84.603,83.661C92.214,82.212 99.457,77.665 100.193,66.15C100.22,65.697 100.289,61.402 100.289,60.931C100.293,59.333 100.809,49.59 100.214,43.604ZM88.5,72.337L80.497,72.337L80.497,52.907C80.497,48.816 78.777,46.73 75.279,46.73C71.434,46.73 69.508,49.198 69.508,54.073L69.508,64.708L61.553,64.708L61.553,54.073C61.553,49.198 59.624,46.73 55.779,46.73C52.302,46.73 50.565,48.816 50.562,52.907L50.562,72.337L42.566,72.337L42.566,52.317C42.566,48.227 43.619,44.977 45.726,42.568C47.9,40.165 50.751,38.931 54.29,38.931C58.386,38.931 61.481,40.492 63.545,43.611L65.536,46.925L67.531,43.611C69.594,40.492 72.69,38.931 76.779,38.931C80.314,38.931 83.165,40.165 85.346,42.568C87.453,44.975 88.507,48.224 88.507,52.317L88.5,72.337Z" style="fill:rgb(251,251,251);fill-opacity:0.97;fill-rule:nonzero;"/>
    </g>
</svg>
