<?xml version="1.0" encoding="UTF-8" standalone="no"?>
<!DOCTYPE svg PUBLIC "-//W3C//DTD SVG 1.1//EN" "http://www.w3.org/Graphics/SVG/1.1/DTD/svg11.dtd">
<svg width="100%" height="100%" viewBox="0 0 65 65" version="1.1" xmlns="http://www.w3.org/2000/svg" xmlns:xlink="http://www.w3.org/1999/xlink" xml:space="preserve" xmlns:serif="http://www.serif.com/" style="fill-rule:evenodd;clip-rule:evenodd;stroke-linejoin:round;stroke-miterlimit:2;">
    <path d="M62.754,14.39C61.814,7.406 55.727,1.903 48.512,0.836C47.294,0.656 42.682,0 31.997,0L31.918,0C21.23,0 18.937,0.656 17.72,0.836C10.705,1.873 4.299,6.819 2.745,13.885C1.997,17.365 1.917,21.224 2.056,24.763C2.254,29.838 2.293,34.905 2.753,39.96C3.072,43.318 3.628,46.648 4.417,49.928C5.894,55.984 11.875,61.024 17.734,63.08C24.008,65.224 30.754,65.58 37.218,64.108C37.93,63.943 38.632,63.751 39.325,63.532C40.897,63.033 42.738,62.475 44.091,61.494C44.11,61.48 44.125,61.462 44.136,61.442C44.147,61.421 44.153,61.399 44.153,61.376L44.153,56.477C44.153,56.456 44.148,56.435 44.138,56.415C44.129,56.396 44.115,56.379 44.098,56.365C44.081,56.352 44.061,56.343 44.04,56.338C44.019,56.334 43.997,56.334 43.976,56.338C39.835,57.328 35.591,57.823 31.332,57.816C24.005,57.816 22.034,54.338 21.469,52.891C21.016,51.64 20.728,50.335 20.612,49.009C20.611,48.987 20.615,48.964 20.624,48.944C20.633,48.924 20.647,48.906 20.664,48.892C20.682,48.877 20.702,48.868 20.724,48.863C20.746,48.858 20.768,48.859 20.79,48.864C24.862,49.847 29.037,50.342 33.227,50.341C34.234,50.341 35.239,50.341 36.246,50.315C40.46,50.196 44.901,49.981 49.047,49.171C49.15,49.151 49.253,49.133 49.342,49.106C55.881,47.851 62.104,43.91 62.736,33.93C62.76,33.537 62.819,29.815 62.819,29.407C62.822,28.022 63.265,19.578 62.754,14.39Z" style="fill:rgb(255,183,197);fill-rule:nonzero;"/>
    <path d="M52.394,22.237L52.394,39.588L45.519,39.588L45.519,22.748C45.519,19.203 44.041,17.395 41.036,17.395C37.733,17.395 36.078,19.534 36.078,23.759L36.078,32.976L29.243,32.976L29.243,23.759C29.243,19.534 27.586,17.395 24.282,17.395C21.295,17.395 19.803,19.203 19.803,22.748L19.803,39.588L12.93,39.588L12.93,22.237C12.93,18.692 13.835,15.875 15.645,13.788C17.513,11.705 19.962,10.636 23.003,10.636C26.522,10.636 29.181,11.989 30.954,14.692L32.665,17.563L34.379,14.692C36.152,11.989 38.811,10.636 42.324,10.636C45.362,10.636 47.811,11.705 49.685,13.788C51.493,15.873 52.396,18.69 52.394,22.237Z" style="fill:white;fill-rule:nonzero;"/>
</svg>
